. 
  
http://www.torrentday.com/        :     The Hottest Private Tracker On The Net!!!


               www . TorrentDay . Com 
(((((((((((((= Enjoy No RAR releases =))))))))))))))))))))


...................................NFO:....................................

.[img]http://leetleech.org/images/62448982534336528890.jpg[/img] 

[b]Centurion 2010 DVDRip XviD AC3-LEGi0N 

[img]http://leetleech.org/images/48874973695367351744.png[/img]
[color=red]General[/color]
Format:AVI 
File size: 1.37 GiB
Duration: 1h 33mn
Overall bit rate: 2 096 Kbps
IMDb Rating: 6.8/10   951 votes 
Genre: Action | Adventure | Drama | History | Thriller | War
Release Date: 27 August 2010  
IMDb Link: http://www.imdb.com/title/tt1020558/ Link:Source: DVDR PAL-ALLiANCE  

[color=red]Video[/color]
Format: MPEG-4 Visual
Format profile: Streaming Video@L1
Format settings, BVOP: Yes
Format settings, QPel: No
Format settings, GMC: No warppoints
Format settings, Matrix: Default (H.263)
Muxing mode: Packed bitstream
Codec ID: XVID
Bit rate: 1 638 Kbps
Width: 720 pixels
Height: 304 pixels
Display aspect ratio: 2.35
Frame rate: 25.000 fps
Resolution: 24 bits
Colorimetry: 4:2:0
Scan type: Progressive
Bits/(Pixel*Frame): 0.299
Stream size: 1.07 GiB (78%)

[color=red]Audio[/color]
Format: AC-3
Bit rate mode: Constant
Bit rate: 448 Kbps
Channel(s): 6 channels
Sampling rate: 48.0 KHz
Stream size: 300 MiB (21%)

[img]http://leetleech.org/images/89524873606771859129.png[/img]
A splinter group of Roman soldiers fight for their lives behind 
enemy lines after their legion is decimated in a devastating 
guerrilla attack.

[color=red]Tagline:[/color]
Fight or die.  

[img]http://leetleech.org/images/84434050717770922575.png[/img]
Michael Fassbender	... 	Quintus Dias
Dominic West	... 	Virilus
Olga Kurylenko	... 	Etain
Noel Clarke	... 	Macros
David Morrissey	... 	Bothos
JJ Feild	... 	Thax
Axelle Carolyn	... 	Aeron
Riz Ahmed		
Dave Legeno	... 	Vortix
Ulrich Thomsen	... 	Gorlacon   

[color=red]GREETZ[/color]
Noir | xXTHORNXx | bigimac | LUSi |

kempas | KaN1vE | mike160 | skillz |

Lungbuster | Sheikh | DiLLoN1369 |

FLAWL3SS | AND ALL P2P!

[color=red]SAMPLE INCLUDED[/color][/b]

[img]http://leetleech.org/images/95521316153253938506.png[/img]
[img]http://leetleech.org/images/36439999183370403489.png[/img] 
[img]http://leetleech.org/images/59934319797649740785.png[/img] 
[img]http://leetleech.org/images/94151240786779586514.png[/img] 
[img]http://leetleech.org/images/72149290817814636573.png[/img]
[img]http://leetleech.org/images/08620554460378952737.png[/img]
[img]http://leetleech.org/images/34811698193259938413.png[/img]
[img]http://leetleech.org/images/12755021538703799215.png[/img]